nColumns=28
nRows=66
DataType=double
version=3
OpenSimVersion=4.1
endheader
time	ground_force_1_vx	ground_force_1_vy	ground_force_1_vz	ground_force_1_px	ground_force_1_py	ground_force_1_pz	ground_force_1_mx	ground_force_1_my	ground_force_1_mz	ground_force_2_vx	ground_force_2_vy	ground_force_2_vz	ground_force_2_px	ground_force_2_py	ground_force_2_pz	ground_force_2_mx	ground_force_2_my	ground_force_2_mz	ground_force_3_vx	ground_force_3_vy	ground_force_3_vz	ground_force_3_px	ground_force_3_py	ground_force_3_pz	ground_force_3_mx	ground_force_3_my	ground_force_3_mz
10.09	0.992316	206.306	-33.6856	-0.271347	0.006	-0.41534	0	-0.102073	0	-2.06601	239.263	39.4177	-0.264299	0.006	-0.780983	0	1.39462	0	0	0	0	0	0	0	0	0	0
10.1	-0.631618	205.648	-33.9502	-0.268219	0.006	-0.414733	0	-0.125633	0	-1.55616	236.007	38.4628	-0.264321	0.006	-0.780608	0	1.33989	0	0	0	0	0	0	0	0	0	0
10.11	-2.27676	205.857	-34.0657	-0.265473	0.006	-0.414197	0	-0.113609	0	-0.279679	236.156	37.7736	-0.264543	0.006	-0.780311	0	1.2614	0	0	0	0	0	0	0	0	0	0
10.12	-3.40133	205.867	-33.9531	-0.263294	0.006	-0.413567	0	-0.0824645	0	0.594514	238.597	37.2439	-0.26415	0.006	-0.780356	0	1.1155	0	0	0	0	0	0	0	0	0	0
10.13	-3.34308	205.41	-33.6511	-0.261535	0.006	-0.413047	0	-0.0792251	0	0.897636	241.955	37.1949	-0.262857	0.006	-0.781003	0	0.952898	0	0	0	0	0	0	0	0	0	0
10.14	-2.44197	205.896	-33.4062	-0.259815	0.006	-0.412306	0	-0.0896814	0	0.682242	245.713	37.7581	-0.260872	0.006	-0.782108	0	0.86517	0	0	0	0	0	0	0	0	0	0
10.15	-1.61261	207.023	-33.4212	-0.25827	0.006	-0.411404	0	-0.106376	0	0.00708265	248.779	38.672	-0.258156	0.006	-0.783134	0	0.816473	0	0	0	0	0	0	0	0	0	0
10.16	-0.915795	208.393	-33.7574	-0.256543	0.006	-0.410706	0	-0.11487	0	-0.878575	250.224	39.4801	-0.254784	0.006	-0.783965	0	0.817085	0	0	0	0	0	0	0	0	0	0
10.17	-0.316988	209.789	-34.2403	-0.254272	0.006	-0.409891	0	-0.113809	0	-1.39971	250.51	40.0247	-0.251753	0.006	-0.784484	0	0.869729	0	0	0	0	0	0	0	0	0	0
10.18	-0.385112	211.42	-35.0651	-0.251198	0.006	-0.408854	0	-0.124877	0	-1.34712	251.023	40.6587	-0.249683	0.006	-0.784938	0	0.928627	0	0	0	0	0	0	0	0	0	0
10.19	-1.47496	213.054	-35.9466	-0.247611	0.006	-0.407649	0	-0.113317	0	-0.818378	252.612	41.427	-0.248378	0.006	-0.785474	0	0.981368	0	0	0	0	0	0	0	0	0	0
10.2	-2.82427	214.243	-36.1541	-0.244099	0.006	-0.406548	0	-0.0696071	0	-0.209184	255.846	42.0185	-0.247059	0.006	-0.785957	0	1.02202	0	0	0	0	0	0	0	0	0	0
10.21	-3.68707	214.694	-35.7158	-0.241324	0.006	-0.405796	0	-0.0804929	0	0.0909567	259.763	41.8349	-0.245669	0.006	-0.786084	0	1.06682	0	0	0	0	0	0	0	0	0	0
10.22	-3.45138	214.639	-34.8346	-0.239786	0.006	-0.405346	0	-0.137363	0	0.268688	263.284	41.1956	-0.244877	0.006	-0.786	0	1.13543	0	0	0	0	0	0	0	0	0	0
10.23	-2.20214	215.653	-33.8089	-0.238824	0.006	-0.405128	0	-0.229178	0	0.574504	266.927	40.8406	-0.24426	0.006	-0.786167	0	1.22727	0	0	0	0	0	0	0	0	0	0
10.24	-0.860738	218.201	-32.9247	-0.237879	0.006	-0.404995	0	-0.329395	0	0.720291	271.844	41.0913	-0.243032	0.006	-0.786705	0	1.31586	0	0	0	0	0	0	0	0	0	0
10.25	0.173371	221.842	-32.4998	-0.237057	0.006	-0.404704	0	-0.43593	0	0.243671	277.901	42.163	-0.241064	0.006	-0.787455	0	1.36521	0	0	0	0	0	0	0	0	0	0
10.26	0.57491	226.413	-32.8043	-0.236361	0.006	-0.404305	0	-0.548796	0	-0.650107	283.81	43.8054	-0.239172	0.006	-0.788383	0	1.4184	0	0	0	0	0	0	0	0	0	0
10.27	0.484234	231.682	-33.7722	-0.235609	0.006	-0.403704	0	-0.65133	0	-1.36646	288.623	45.5993	-0.238098	0.006	-0.789285	0	1.49361	0	0	0	0	0	0	0	0	0	0
10.28	0.64061	237.247	-35.2456	-0.234983	0.006	-0.402815	0	-0.765709	0	-1.49129	292.687	47.0841	-0.237496	0.006	-0.789889	0	1.54844	0	0	0	0	0	0	0	0	0	0
10.29	1.072	243.151	-37.3361	-0.234376	0.006	-0.401781	0	-0.866298	0	-1.08666	296.817	47.9015	-0.237155	0.006	-0.79013	0	1.636	0	0	0	0	0	0	0	0	0	0
10.3	1.62513	249.741	-39.7139	-0.23356	0.006	-0.400715	0	-0.958323	0	-0.339553	301.156	48.3852	-0.236981	0.006	-0.790216	0	1.755	0	0	0	0	0	0	0	0	0	0
10.31	1.77849	256.949	-42.2865	-0.232085	0.006	-0.399661	0	-1.01884	0	0.544377	305.187	48.8302	-0.236651	0.006	-0.790516	0	1.85153	0	0	0	0	0	0	0	0	0	0
10.32	1.18382	263.795	-44.6851	-0.230134	0.006	-0.398456	0	-1.05084	0	0.944922	308.112	49.1701	-0.235964	0.006	-0.791004	0	1.89725	0	0	0	0	0	0	0	0	0	0
10.33	0.153915	269.084	-46.413	-0.228232	0.006	-0.397471	0	-1.0538	0	0.713918	309.275	49.3497	-0.234865	0.006	-0.791378	0	1.87726	0	0	0	0	0	0	0	0	0	0
10.34	-0.717767	273.261	-47.4722	-0.226447	0.006	-0.396957	0	-1.0662	0	0.530157	308.898	49.3246	-0.233746	0.006	-0.791617	0	1.87334	0	0	0	0	0	0	0	0	0	0
10.35	-1.15019	277.259	-47.976	-0.224695	0.006	-0.396552	0	-1.07747	0	0.733597	307.681	49.0056	-0.232632	0.006	-0.791896	0	1.87052	0	0	0	0	0	0	0	0	0	0
10.36	-1.30506	280.972	-48.0995	-0.223136	0.006	-0.396189	0	-1.11281	0	1.13077	305.952	48.2887	-0.231346	0.006	-0.792257	0	1.86537	0	0	0	0	0	0	0	0	0	0
10.37	-1.40064	283.937	-48.2534	-0.22162	0.006	-0.396139	0	-1.17459	0	1.53901	303.858	47.2847	-0.230002	0.006	-0.792509	0	1.86402	0	0	0	0	0	0	0	0	0	0
10.38	-1.57424	286.168	-48.3593	-0.220087	0.006	-0.395997	0	-1.21461	0	1.8165	301.934	46.4637	-0.228822	0.006	-0.792656	0	1.84741	0	0	0	0	0	0	0	0	0	0
10.39	-1.78646	288.115	-48.3483	-0.218578	0.006	-0.395686	0	-1.25397	0	1.78596	299.932	46.0772	-0.227399	0.006	-0.792817	0	1.83558	0	0	0	0	0	0	0	0	0	0
10.4	-1.84454	289.578	-48.42	-0.217197	0.006	-0.395451	0	-1.34565	0	1.64339	297.887	45.8592	-0.225771	0.006	-0.792973	0	1.85833	0	0	0	0	0	0	0	0	0	0
10.41	-1.86657	290.297	-48.5069	-0.215781	0.006	-0.395277	0	-1.43912	0	1.40379	296.092	45.7861	-0.223853	0.006	-0.793239	0	1.84241	0	0	0	0	0	0	0	0	0	0
10.42	-1.98032	290.329	-48.6028	-0.214261	0.006	-0.395175	0	-1.47732	0	0.905166	294.649	45.8552	-0.221874	0.006	-0.793739	0	1.79475	0	0	0	0	0	0	0	0	0	0
10.43	-2.39162	290.459	-48.8245	-0.212714	0.006	-0.394958	0	-1.47814	0	0.236516	293.851	46.0748	-0.220201	0.006	-0.79433	0	1.7451	0	0	0	0	0	0	0	0	0	0
10.44	-3.08358	290.371	-49.1603	-0.211054	0.006	-0.394729	0	-1.47114	0	-0.485134	294.047	46.7025	-0.218576	0.006	-0.794767	0	1.70528	0	0	0	0	0	0	0	0	0	0
10.45	-3.84146	289.976	-49.5339	-0.209059	0.006	-0.394368	0	-1.45708	0	-1.18726	295.097	47.7662	-0.216638	0.006	-0.795289	0	1.61618	0	0	0	0	0	0	0	0	0	0
10.46	-4.65386	289.42	-49.8646	-0.206943	0.006	-0.393932	0	-1.4359	0	-2.05814	296.675	49.1178	-0.21462	0.006	-0.795993	0	1.52014	0	0	0	0	0	0	0	0	0	0
10.47	-5.48834	288.6	-50.0293	-0.205005	0.006	-0.393678	0	-1.42333	0	-2.87572	298.437	50.4982	-0.212664	0.006	-0.796693	0	1.47587	0	0	0	0	0	0	0	0	0	0
10.48	-6.09632	288.201	-50.0985	-0.203295	0.006	-0.393569	0	-1.42667	0	-3.43716	300.213	51.6452	-0.210761	0.006	-0.797419	0	1.47054	0	0	0	0	0	0	0	0	0	0
10.49	-6.29177	288.917	-50.3577	-0.201832	0.006	-0.393599	0	-1.44042	0	-3.95102	301.405	52.4452	-0.209018	0.006	-0.798029	0	1.4785	0	0	0	0	0	0	0	0	0	0
10.5	-6.22839	290.351	-50.8126	-0.200789	0.006	-0.393556	0	-1.4639	0	-4.24151	302.373	52.7919	-0.207454	0.006	-0.798373	0	1.52967	0	0	0	0	0	0	0	0	0	0
10.51	-6.07943	292.471	-51.2075	-0.200028	0.006	-0.393424	0	-1.48685	0	-4.39942	303.99	52.7913	-0.205962	0.006	-0.798559	0	1.61345	0	0	0	0	0	0	0	0	0	0
10.52	-6.20484	295.018	-51.7338	-0.199144	0.006	-0.3934	0	-1.51847	0	-4.84816	306.374	52.6496	-0.204514	0.006	-0.798884	0	1.68084	0	0	0	0	0	0	0	0	0	0
10.53	-6.80158	297.168	-52.1806	-0.197918	0.006	-0.393316	0	-1.54733	0	-5.60908	308.927	52.5106	-0.202967	0.006	-0.799351	0	1.74373	0	0	0	0	0	0	0	0	0	0
10.54	-7.71694	298.801	-52.4187	-0.196508	0.006	-0.393258	0	-1.5636	0	-6.31868	310.561	52.4989	-0.201373	0.006	-0.799686	0	1.82683	0	0	0	0	0	0	0	0	0	0
10.55	-8.61074	300.4	-52.5612	-0.195001	0.006	-0.393272	0	-1.56483	0	-6.95167	310.587	52.523	-0.199794	0.006	-0.80004	0	1.88195	0	0	0	0	0	0	0	0	0	0
10.56	-9.34106	302.002	-52.8185	-0.193629	0.006	-0.393256	0	-1.57322	0	-7.48853	308.965	52.508	-0.197992	0.006	-0.800438	0	1.91402	0	0	0	0	0	0	0	0	0	0
10.57	-9.87177	303.646	-53.24	-0.192404	0.006	-0.393085	0	-1.61023	0	-7.80201	306.281	52.4398	-0.196215	0.006	-0.800812	0	1.92135	0	0	0	0	0	0	0	0	0	0
10.58	-10.1492	305.531	-53.8695	-0.191318	0.006	-0.392907	0	-1.62554	0	-7.9339	303.207	52.3514	-0.194473	0.006	-0.80116	0	1.89804	0	0	0	0	0	0	0	0	0	0
10.59	-10.3406	306.844	-54.5202	-0.190365	0.006	-0.392869	0	-1.6079	0	-7.93894	300.255	52.2801	-0.192643	0.006	-0.801496	0	1.86639	0	0	0	0	0	0	0	0	0	0
10.6	-10.6023	307.691	-55.2018	-0.18934	0.006	-0.392728	0	-1.59595	0	-7.88749	297.928	52.4771	-0.191051	0.006	-0.801927	0	1.82964	0	0	0	0	0	0	0	0	0	0
10.61	-10.819	308.161	-55.6968	-0.188408	0.006	-0.392529	0	-1.60272	0	-8.07884	296.37	52.7692	-0.189442	0.006	-0.802341	0	1.79617	0	0	0	0	0	0	0	0	0	0
10.62	-11.0765	308.102	-55.9615	-0.187488	0.006	-0.392363	0	-1.59169	0	-8.47439	294.702	52.8393	-0.18804	0.006	-0.802571	0	1.78719	0	0	0	0	0	0	0	0	0	0
10.63	-11.2905	307.738	-56.0493	-0.186531	0.006	-0.39223	0	-1.55442	0	-8.82386	292.367	52.5718	-0.186862	0.006	-0.802643	0	1.81687	0	0	0	0	0	0	0	0	0	0
10.64	-11.429	306.92	-56.009	-0.185607	0.006	-0.392151	0	-1.51242	0	-9.08815	289.697	52.0121	-0.185481	0.006	-0.802881	0	1.82837	0	0	0	0	0	0	0	0	0	0
10.65	-11.3918	306.003	-55.8596	-0.184809	0.006	-0.392093	0	-1.49194	0	-9.1743	287.423	51.4722	-0.183969	0.006	-0.802999	0	1.85125	0	0	0	0	0	0	0	0	0	0
10.66	-11.2285	305.509	-55.5999	-0.184228	0.006	-0.392155	0	-1.49565	0	-9.1834	286.268	51.0895	-0.183023	0.006	-0.802952	0	1.91721	0	0	0	0	0	0	0	0	0	0
10.67	-11.0392	305.717	-55.3176	-0.183796	0.006	-0.39223	0	-1.50251	0	-9.2752	286.325	50.9764	-0.182257	0.006	-0.802975	0	1.97058	0	0	0	0	0	0	0	0	0	0
10.68	-10.822	306.285	-55.0969	-0.183465	0.006	-0.3923	0	-1.50022	0	-9.50304	286.992	51.1059	-0.181358	0.006	-0.803055	0	1.996	0	0	0	0	0	0	0	0	0	0
10.69	-10.6337	306.683	-54.928	-0.183111	0.006	-0.392372	0	-1.47859	0	-9.94248	287.433	51.3035	-0.180336	0.006	-0.803064	0	2.00281	0	0	0	0	0	0	0	0	0	0
10.7	-10.3507	307.305	-54.9072	-0.182729	0.006	-0.392322	0	-1.47307	0	-10.3976	287.508	51.3812	-0.179261	0.006	-0.803147	0	2.01034	0	0	0	0	0	0	0	0	0	0
10.71	-10.0123	307.644	-54.8481	-0.1825	0.006	-0.392382	0	-1.48465	0	-10.7041	287.076	51.4095	-0.178317	0.006	-0.803341	0	2.01532	0	0	0	0	0	0	0	0	0	0
10.72	-9.69187	307.548	-54.7557	-0.182369	0.006	-0.392545	0	-1.4887	0	-10.9331	286.061	51.4541	-0.177566	0.006	-0.803477	0	2.01524	0	0	0	0	0	0	0	0	0	0
10.73	-9.31707	308.177	-54.7243	-0.182144	0.006	-0.392581	0	-1.47673	0	-11.1804	284.996	51.6589	-0.176721	0.006	-0.803678	0	1.97953	0	0	0	0	0	0	0	0	0	0
10.74	-8.99814	309.648	-54.8598	-0.181824	0.006	-0.392491	0	-1.45262	0	-11.4452	284.162	52.0513	-0.175565	0.006	-0.80389	0	1.89791	0	0	0	0	0	0	0	0	0	0
